<?xml version="1.0" encoding="UTF-8"?>
<svg version="1.1" xmlns="http://www.w3.org/2000/svg" width="1200" height="1200">
<path d="M0 0 C396 0 792 0 1200 0 C1200 396 1200 792 1200 1200 C804 1200 408 1200 0 1200 C0 804 0 408 0 0 Z " fill="#0B008F" transform="translate(0,0)"/>
<path d="M0 0 C4.95 0 9.9 0 15 0 C15 4.95 15 9.9 15 15 C16.49668213 14.92144775 17.99336426 14.84289551 19.53540039 14.76196289 C25.15314144 14.48796775 30.77031142 14.31740818 36.39282227 14.17602539 C38.81343234 14.10114124 41.23337661 13.99918139 43.65161133 13.8684082 C65.63388392 12.71049052 65.63388392 12.71049052 74.11286926 19.16099548 C81.02386752 25.65299487 83.32018599 32.54526367 83.9921875 41.875 C84.07255008 45.14879213 84.04971227 48.39654248 83.95556641 51.66992188 C83.87490648 55.00386568 83.95491992 58.30760016 84.05078125 61.640625 C84.11451368 72.01845305 83.28807901 81.04587615 76.0078125 88.9453125 C67.06492461 97.26309779 56.10765839 97.27621302 44.47558594 96.95556641 C40.99721317 96.8749354 37.54780323 96.95492167 34.0703125 97.05078125 C24.12191718 97.12002039 13.88002558 96.55242822 5.93359375 89.94140625 C-2.7832629 80.97933718 -1.55335845 67.33373148 -1.4359436 55.69885254 C-1.35288832 51.09216792 -1.19685971 46.48937026 -1.02996826 41.8850708 C-0.87515443 37.15941689 -0.80773004 32.432549 -0.73242188 27.70507812 C-0.57262547 18.46634371 -0.30936483 9.23493677 0 0 Z " fill="#FAFAFC" transform="translate(403,546)"/>
<path d="M0 0 C3.69507819 0.08059325 7.36288261 0.00064384 11.05712891 -0.09521484 C21.61023969 -0.15908407 32.08543608 0.21241126 40.35400391 7.48291016 C48.49473131 16.12218277 47.83001255 28.02658714 47.58107185 39.16454315 C47.48824698 42.15000502 47.35805289 45.13321544 47.22381592 48.11706543 C47.06859631 51.93761926 47.00149638 55.75970236 46.92626953 59.58251953 C46.76677688 67.04481777 46.50373041 74.49772152 46.19384766 81.95556641 C40.91384766 81.95556641 35.63384766 81.95556641 30.19384766 81.95556641 C30.19384766 71.39556641 30.19384766 60.83556641 30.19384766 49.95556641 C12.37384766 49.95556641 -5.44615234 49.95556641 -23.80615234 49.95556641 C-23.80615234 60.51556641 -23.80615234 71.07556641 -23.80615234 81.95556641 C-28.75615234 81.95556641 -33.70615234 81.95556641 -38.80615234 81.95556641 C-39.14753872 73.73953417 -39.42155382 65.52916758 -39.58333492 57.30790615 C-39.66105772 53.48860633 -39.76605604 49.67447657 -39.93774414 45.8581543 C-41.14853645 18.13523416 -41.14853645 18.13523416 -34.77272034 9.39994812 C-25.50269263 -0.43778412 -12.70550241 -0.3296837 0 0 Z " fill="#FAFAFC" transform="translate(644.80615234375,559.04443359375)"/>
<path d="M0 0 C3.94124096 0.15515487 7.88396005 0.22230665 11.82739258 0.29754639 C19.5265225 0.45708701 27.21655949 0.72016742 34.91137695 1.02996826 C34.91137695 6.30996826 34.91137695 11.58996826 34.91137695 17.02996826 C12.80137695 17.02996826 -9.30862305 17.02996826 -32.08862305 17.02996826 C-32.08862305 22.30996826 -32.08862305 27.58996826 -32.08862305 33.02996826 C-30.59194092 32.95141602 -29.09525879 32.87286377 -27.55322266 32.79193115 C-21.93548161 32.51793601 -16.31831162 32.34737644 -10.69580078 32.20599365 C-8.27519071 32.1311095 -5.85524644 32.02914965 -3.43701172 31.89837646 C18.79494361 30.72730673 18.79494361 30.72730673 27.02378845 38.02348328 C32.57634528 43.71409848 36.409011 48.84974315 36.78637695 57.02996826 C36.35341457 64.9503287 32.93036463 70.41218661 27.56871033 76.03645325 C16.93762491 85.26946514 0.51919472 82.62473623 -12.64080811 82.05993652 C-16.64239165 81.90481257 -20.64542901 81.83763604 -24.64916992 81.76239014 C-32.46671915 81.60282653 -40.27531911 81.33973004 -48.08862305 81.02996826 C-48.08862305 75.74996826 -48.08862305 70.46996826 -48.08862305 65.02996826 C-25.97862305 65.02996826 -3.86862305 65.02996826 18.91137695 65.02996826 C18.91137695 59.74996826 18.91137695 54.46996826 18.91137695 49.02996826 C16.71179321 49.14779663 16.71179321 49.14779663 14.46777344 49.26800537 C8.96187865 49.54207301 3.45656609 49.7125832 -2.05419922 49.85394287 C-4.42632791 49.92881152 -6.79777771 50.03075997 -9.16748047 50.16156006 C-30.94891789 51.33260508 -30.94891789 51.33260508 -39.16697693 44.03645325 C-44.73173448 38.3415168 -48.58899459 33.22665969 -48.96362305 25.02996826 C-48.53314547 17.09311734 -45.08598743 11.65251482 -39.7118988 6.02348328 C-29.20413587 -3.1141253 -13.04878463 -0.56874938 0 0 Z " fill="#F8F7FB" transform="translate(760.088623046875,559.9700317382813)"/>
<path d="M0 0 C14.25511754 17.0693855 20.0266551 44.6984565 24 66 C24.14953125 66.75410156 24.2990625 67.50820313 24.453125 68.28515625 C30.74580525 100.77925512 27.84171786 136.32505197 19 168 C18.71817871 169.04341553 18.71817871 169.04341553 18.43066406 170.10791016 C9.68621653 202.11632906 -7.11685196 231.27402608 -29 256 C-29.77085937 256.88171875 -30.54171875 257.7634375 -31.3359375 258.671875 C-53.99081338 284.26791021 -53.99081338 284.26791021 -63 285 C-65.375 283.5 -65.375 283.5 -67 281 C-66.87406805 277.07811922 -66.74110085 274.79675665 -64.0234375 271.875 C-63.14945313 271.25625 -62.27546875 270.6375 -61.375 270 C-49.87767242 261.22729953 -39.69732084 250.53726234 -31 239 C-30.60506348 238.47615723 -30.21012695 237.95231445 -29.80322266 237.41259766 C-9.02459981 209.63485975 4.24809553 178.5496752 11.25 144.625 C11.49508301 143.44925415 11.49508301 143.44925415 11.74511719 142.24975586 C20.25876122 98.83289421 12.18787945 52.04146131 -7.0625 12.6875 C-9.12744584 8.28736374 -9.51494057 5.64581774 -8 1 C-4.99449319 -0.50275341 -3.33001693 -0.58765005 0 0 Z " fill="#FAFAFC" transform="translate(852,455)"/>
<path d="M0 0 C4.95 0 9.9 0 15 0 C16.85558203 21.34502846 18.40158988 42.5769178 19 64 C34.18 64 49.36 64 65 64 C65 60.37 65 56.74 65 53 C65.10118997 51.0631032 65.22764771 49.1269672 65.40234375 47.1953125 C65.48750244 46.20966309 65.57266113 45.22401367 65.66040039 44.20849609 C65.75184326 43.19094238 65.84328613 42.17338867 65.9375 41.125 C66.71666078 32.02456564 67.31786907 22.94061897 67.65795898 13.81298828 C67.70545288 12.61778564 67.70545288 12.61778564 67.75390625 11.3984375 C67.77783447 10.71442871 67.8017627 10.03041992 67.82641602 9.32568359 C68.05961362 6.20129488 68.55691567 3.10159028 69 0 C73.95 0 78.9 0 84 0 C84.12700135 13.68968731 83.95519162 27.32917515 83.15771484 40.99853516 C83.0512409 42.94044846 82.96080231 44.88329801 82.88525391 46.82666016 C82.24872347 63.01387088 82.24872347 63.01387088 79.37109375 67.59082031 C77.375 69.3203125 77.375 69.3203125 75.28939819 70.51275635 C72.81688985 72.1189524 71.28325534 73.85394262 69.37353516 76.08789062 C65.54073562 79.98304325 62.83665326 80.99051493 57.43930054 81.26547241 C56.51831573 81.26810089 55.59733093 81.27072937 54.6484375 81.2734375 C53.67194244 81.29532135 52.69544739 81.3172052 51.68936157 81.3397522 C49.63052344 81.37134767 47.57126633 81.38191356 45.51220703 81.37255859 C42.39796012 81.37498213 39.3027522 81.49427124 36.19140625 81.62109375 C26.7888551 81.7818904 19.59761666 81.63925712 12.49649048 74.94180298 C9.82772415 72.0796072 7.41215143 69.08130708 5 66 C4.34 65.67 3.68 65.34 3 65 C2.56618945 58.1542905 2.13980389 51.30814572 1.71826172 44.46166992 C1.57441075 42.13897557 1.42894147 39.8163808 1.28173828 37.49389648 C0.48936464 24.97493194 -0.20006699 12.54586735 0 0 Z " fill="#FAFAFC" transform="translate(213,561)"/>
<path d="M0 0 C20.46 0 40.92 0 62 0 C62 5.28 62 10.56 62 16 C54.41 16 46.82 16 39 16 C39 31.84 39 47.68 39 64 C46.59 64 54.18 64 62 64 C62 69.28 62 74.56 62 80 C41.54 80 21.08 80 0 80 C0 74.72 0 69.44 0 64 C7.59 64 15.18 64 23 64 C23 48.16 23 32.32 23 16 C15.41 16 7.82 16 0 16 C0 10.72 0 5.44 0 0 Z " fill="#F6F6FB" transform="translate(319,561)"/>
<path d="M0 0 C16.83 0 33.66 0 51 0 C51 15.84 51 31.68 51 48 C34.17 48 17.34 48 0 48 C0 32.16 0 16.32 0 0 Z " fill="#0B008F" transform="translate(418,577)"/>
<path d="M0 0 C3.57917079 0.15536198 7.15998443 0.22234778 10.74157715 0.29754639 C17.72967691 0.45692124 24.70972357 0.71994368 31.69274902 1.02996826 C31.69274902 5.97996826 31.69274902 10.92996826 31.69274902 16.02996826 C11.56274902 16.02996826 -8.56725098 16.02996826 -29.30725098 16.02996826 C-29.30725098 37.47996826 -29.30725098 58.92996826 -29.30725098 81.02996826 C-34.25725098 81.02996826 -39.20725098 81.02996826 -44.30725098 81.02996826 C-44.64863736 72.81393603 -44.92265246 64.60356944 -45.08443356 56.38230801 C-45.16215636 52.56300819 -45.26715467 48.74887843 -45.43884277 44.93255615 C-46.73307894 15.28109922 -46.73307894 15.28109922 -38.71350098 6.49871826 C-28.45071969 -2.69697793 -12.84059964 -0.61737217 0 0 Z " fill="#FEFEFE" transform="translate(551.3072509765625,559.9700317382813)"/>
<path d="M0 0 C3.21769547 0.17551066 5.90200441 0.33363027 8.69921875 2.03125 C10.80153464 5.21313352 10.43952988 8.62683684 10.375 12.3125 C10.36557373 13.14918213 10.35614746 13.98586426 10.34643555 14.84790039 C9.82822853 37.20925571 4.87153293 58.50578024 -3.4375 79.1875 C-3.89189453 80.3221167 -4.34628906 81.4567334 -4.81445312 82.62573242 C-7.49675377 89.07559409 -10.2921213 95.73361398 -15 101 C-18.1875 101.8125 -18.1875 101.8125 -21 101 C-22.9375 99.375 -22.9375 99.375 -24 97 C-23.62241327 91.35336201 -21.20534396 86.77254549 -18.8125 81.75 C-12.09618976 67.19487641 -7.45616622 52.83408488 -5 37 C-4.80664062 35.88753906 -4.61328125 34.77507813 -4.4140625 33.62890625 C-3.07815903 25.41019574 -2.63797989 17.24397868 -2.42919922 8.9309082 C-2.40100098 8.06167725 -2.37280273 7.19244629 -2.34375 6.296875 C-2.32505859 5.51666992 -2.30636719 4.73646484 -2.28710938 3.93261719 C-2 2 -2 2 0 0 Z " fill="#F7F7FB" transform="translate(910,573)"/>
<path d="M0 0 C17.82 0 35.64 0 54 0 C54 5.28 54 10.56 54 16 C36.18 16 18.36 16 0 16 C0 10.72 0 5.44 0 0 Z " fill="#0B008F" transform="translate(621,577)"/>
</svg>
